<mxfile host="app.diagrams.net" modified="2024-07-15T04:40:20.657Z" agent="Mozilla/5.0 (Windows NT 10.0; Win64; x64) AppleWebKit/537.36 (KHTML, like Gecko) Chrome/113.0.0.0 Safari/537.36" version="24.6.5" etag="wU-WYQZao_ZHD7W3ffsi" type="github">
  <diagram name="Page-1" id="h3_ZRnI8aKd5fj8cQc6Y">
    <mxGraphModel>
      <root>
        <mxCell id="0" />
        <mxCell id="1" parent="0" />
      </root>
    </mxGraphModel>
  </diagram>
</mxfile>
